<svg xmlns="http://www.w3.org/2000/svg" version="1.1" xmlns:xlink="http://www.w3.org/1999/xlink" xmlns:svgjs="http://svgjs.dev/svgjs" width="1500" height="1500" viewBox="0 0 1500 1500"><rect width="1500" height="1500" fill="#ffffff"></rect><g transform="matrix(0.6666666666666666,0,0,0.6666666666666666,250,348.59897201400145)"><svg viewBox="0 0 448 360" data-background-color="#003366" preserveAspectRatio="xMidYMid meet" height="1205" width="1500" xmlns="http://www.w3.org/2000/svg" xmlns:xlink="http://www.w3.org/1999/xlink"><g id="tight-bounds" transform="matrix(1,0,0,1,0,-0.11904140046539169)"><svg viewBox="0 0 448 360" height="360" width="448"><g><svg></svg></g><g><svg viewBox="0 0 448 360" height="360" width="448"><g><path transform="translate(36.9151,-7.08178) scale(0.00624,0.00624)" d="M25167 8301c221 0 400 179 400 400 0 221-179 400-400 400h-3824l-2753 2753c-156 156-409 156-566 0-156-156-156-409 0-566l2188-2188h-6475c-1847 0-3071 431-3819 1301-760 885-1068 2254-1068 4110 0 11 0 22-1 33l34 5884 2356-2356c156-156 409-156 566 0 156 156 156 409 0 566l-2915 2915c33 5746 31 11443-2 17189 4087 4041 8117 8068 12157 12154h4070c221 0 400 179 400 400 0 221-179 400-400 400h-3279l4160 4208 1-1c1313 1313 2498 2062 3660 2151 1146 87 2316-474 3622-1779l4579-4579h-3323c-221 0-400-179-400-400 0-221 179-400 400-400h4123l2666-2666c156-156 409-156 566 0 156 156 156 409 0 566l-2101 2101h6475c1847 0 3071-431 3819-1301 760-885 1068-2254 1068-4110h2l-34-5917-2568 2568c-156 156-409 156-566 0-156-156-156-409 0-566l3127-3127c-33-5746-31-11443 2-17189-4087-4041-8117-8068-12157-12154h-4193c-221 0-400-179-400-400 0-221 179-400 400-400h3402l-4141-4189c-7-6-13-12-20-18-1313-1313-2498-2062-3660-2151-1146-87-2316 474-3622 1779l-4579 4579h3024zM13737 8301h7275l5144-5144c1483-1483 2856-2116 4247-2010 1374 104 2719 934 4167 2382 8 8 15 15 22 23l4695 4749h6977c2096 0 3515 524 4425 1583 898 1045 1261 2582 1261 4629 0 13-1 25-2 37l-36 6373 4559 4508 1-1c1448 1448 2278 2792 2382 4167 106 1391-528 2764-2010 4247l-4934 4934 38 6710h2c0 2047-364 3584-1261 4629-910 1059-2329 1583-4425 1583h-7275l-5144 5144c-1483 1483-2856 2116-4247 2010-1374-104-2719-934-4167-2382l1-1-4718-4772h-6977c-2096 0-3515-524-4425-1583-898-1045-1261-2582-1261-4629h2l37-6410-4537-4485c-8-7-16-14-23-22-1448-1448-2278-2792-2382-4167-106-1391 528-2764 2010-4247l4934-4934-38-6672c-1-12-2-25-2-37 0-2047 364-3584 1261-4629 910-1059 2329-1583 4425-1583zM8141 30000l-44-7653-4374 4374c-1305 1305-1866 2476-1779 3622 88 1162 838 2348 2151 3660 6 6 13 13 18 20l3983 3937 45-7961zM8882 39860l-32 5627h2c0 1857 308 3226 1068 4110 748 871 1972 1301 3819 1301h6186l-5380-5442-5662-5597zM46264 9101h-6186l5380 5442 5662 5597 32-5594c-1-11-1-22-1-33 0-1857-308-3226-1068-4110-748-871-1972-1301-3819-1301zM51906 22039l-45 7961 44 7653 4374-4374c1305-1305 1866-2476 1779-3622-88-1163-838-2348-2151-3660l1-1-4002-3956z" fill="#000000" fill-rule="nonzero" stroke="none" stroke-width="1" stroke-linecap="butt" stroke-linejoin="miter" stroke-miterlimit="10" stroke-dasharray="" stroke-dashoffset="0" font-family="none" font-weight="none" font-size="none" text-anchor="none" style="mix-blend-mode: normal" data-fill-palette-color="tertiary"></path></g><g transform="matrix(1,0,0,1,112,107.16621199778717)"><svg viewBox="0 0 224 145.66757600442565" height="145.66757600442565" width="224"><g><svg viewBox="0 0 310.07407751768835 201.64169309736627" height="145.66757600442565" width="224"><g transform="matrix(1,0,0,1,124.41741898138132,0)"><svg viewBox="0 0 185.65665853630705 201.64169309736627" height="201.64169309736627" width="185.65665853630705"><g id="textblocktransform"><svg viewBox="0 0 185.65665853630705 201.64169309736627" height="201.64169309736627" width="185.65665853630705" id="textblock"><g><rect width="185.65665853630705" height="3.6983727302704437" x="0" y="183.24432180267462" fill="#000000" opacity="1" stroke-width="0" stroke="transparent" fill-opacity="1" class="rect-qz-0" data-fill-palette-color="primary" rx="1%" id="qz-0" data-palette-color="#ffffff"></rect></g><g transform="matrix(1,0,0,1,0.4618324839211567,0)"><svg viewBox="0 0 184.73299356846474 178.88760000000002" height="178.88760000000002" width="184.73299356846474"><g transform="matrix(1,0,0,1,0,0)"><svg width="184.73299356846474" viewBox="1.629999999999999 -32.55 149.31999999999996 141.6" height="178.88760000000002" data-palette-color="#ffffff"><svg></svg><svg></svg><svg></svg><svg></svg><g class="wordmark-text-0" data-fill-palette-color="primary" id="text-0"><path d="M17.05 0h-10.45v-3.43h10.05c2.167 0 3.703-0.46 4.61-1.38 0.913-0.927 1.37-2.207 1.37-3.84v0-0.9c0-1.667-0.463-2.96-1.39-3.88-0.927-0.913-2.54-1.37-4.84-1.37v0h-9.77v-3.27h9.72c2.053 0 3.517-0.447 4.39-1.34 0.873-0.893 1.31-2.133 1.31-3.72v0-0.45c0-1.567-0.42-2.787-1.26-3.66-0.84-0.873-2.33-1.31-4.47-1.31v0h-9.79v-3.4h10.17c3.4 0 5.833 0.673 7.3 2.02 1.467 1.353 2.2 3.253 2.2 5.7v0 0.5c0 1.953-0.467 3.487-1.4 4.6-0.933 1.12-2.383 1.787-4.35 2v0l-0.02 0.15c2.247 0.333 3.88 1.117 4.9 2.35 1.013 1.233 1.52 2.953 1.52 5.16v0 1.02c0 2.647-0.767 4.717-2.3 6.21-1.533 1.493-4.033 2.24-7.5 2.24zM7.88 0h-4.1v-31.95h4.1zM37.02-31.95v31.95h-4.14v-31.95zM57.9 0h-10.45v-3.43h10.05c2.167 0 3.703-0.46 4.61-1.38 0.913-0.927 1.37-2.207 1.37-3.84v0-0.9c0-1.667-0.463-2.96-1.39-3.88-0.927-0.913-2.54-1.37-4.84-1.37v0h-9.77v-3.27h9.72c2.053 0 3.517-0.447 4.39-1.34 0.873-0.893 1.31-2.133 1.31-3.72v0-0.45c0-1.567-0.42-2.787-1.26-3.66-0.84-0.873-2.33-1.31-4.47-1.31v0h-9.79v-3.4h10.17c3.4 0 5.833 0.673 7.3 2.02 1.467 1.353 2.2 3.253 2.2 5.7v0 0.5c0 1.953-0.467 3.487-1.4 4.6-0.933 1.12-2.383 1.787-4.35 2v0l-0.02 0.15c2.247 0.333 3.88 1.117 4.9 2.35 1.013 1.233 1.52 2.953 1.52 5.16v0 1.02c0 2.647-0.767 4.717-2.3 6.21-1.533 1.493-4.033 2.24-7.5 2.24zM48.73 0h-4.1v-31.95h4.1zM84.85 0.6v0c-4.033 0-7.1-1.113-9.2-3.34-2.1-2.227-3.15-5.413-3.15-9.56v0-7.38c0-4.133 1.05-7.31 3.15-9.53 2.1-2.227 5.167-3.34 9.2-3.34v0c4.033 0 7.1 1.113 9.2 3.34 2.1 2.22 3.15 5.397 3.15 9.53v0 7.38c0 4.147-1.05 7.333-3.15 9.56-2.1 2.227-5.167 3.34-9.2 3.34zM84.85-2.88v0c2.7 0 4.733-0.803 6.1-2.41 1.367-1.607 2.05-3.887 2.05-6.84v0-7.72c0-2.953-0.683-5.23-2.05-6.83-1.367-1.6-3.4-2.4-6.1-2.4v0c-2.68 0-4.703 0.8-6.07 2.4-1.367 1.6-2.05 3.877-2.05 6.83v0 7.72c0 2.953 0.683 5.233 2.05 6.84 1.367 1.607 3.39 2.41 6.07 2.41z" fill="#000000" fill-rule="nonzero" stroke="none" stroke-width="1" stroke-linecap="butt" stroke-linejoin="miter" stroke-miterlimit="10" stroke-dasharray="" stroke-dashoffset="0" font-family="none" font-weight="none" font-size="none" text-anchor="none" style="mix-blend-mode: normal" data-fill-palette-color="primary" opacity="1"></path><path transform="translate(0,36.15)" d="M15.65-10.63h-9.17v-3.45h9.07c2.18 0 3.763-0.543 4.75-1.63 0.987-1.093 1.48-2.6 1.48-4.52v0-2.17c0-1.953-0.49-3.463-1.47-4.53-0.973-1.067-2.543-1.6-4.71-1.6v0h-9.15v-3.42h9.23c3.567 0 6.16 0.837 7.78 2.51 1.627 1.673 2.44 3.977 2.44 6.91v0 2.4c0 2.967-0.82 5.293-2.46 6.98-1.64 1.68-4.237 2.52-7.79 2.52zM7.88 0h-4.1v-31.95h4.07v18.9l0.03 1.85zM35.95-31.95v31.95h-4.15v-31.95zM55.25-31.95v31.95h-4.15v-31.95zM34.18-14.73v-3.5h18.57v3.5zM73.98 0.6v0c-4.033 0-7.1-1.113-9.2-3.34-2.1-2.227-3.15-5.413-3.15-9.56v0-7.38c0-4.133 1.05-7.31 3.15-9.53 2.1-2.227 5.167-3.34 9.2-3.34v0c4.033 0 7.1 1.113 9.2 3.34 2.1 2.22 3.15 5.397 3.15 9.53v0 7.38c0 4.147-1.05 7.333-3.15 9.56-2.1 2.227-5.167 3.34-9.2 3.34zM73.98-2.88v0c2.7 0 4.733-0.803 6.1-2.41 1.367-1.607 2.05-3.887 2.05-6.84v0-7.72c0-2.953-0.683-5.23-2.05-6.83-1.367-1.6-3.4-2.4-6.1-2.4v0c-2.687 0-4.713 0.8-6.08 2.4-1.367 1.6-2.05 3.877-2.05 6.83v0 7.72c0 2.953 0.683 5.233 2.05 6.84 1.367 1.607 3.393 2.41 6.08 2.41zM92.73-31.95h6.3l12.97 27.5h0.3l-0.17-13.95v-13.55h4.05v31.95h-6.15l-13.13-27.73h-0.3l0.18 14.6v13.13h-4.05zM127.83 0h-4.1v-31.95h4.1zM143.65 0h-18.7v-3.48h18.7zM143.13-14.58h-17.05v-3.45h17.05zM143.5-28.48h-18.58v-3.47h18.58z" fill="#000000" fill-rule="nonzero" stroke="none" stroke-width="1" stroke-linecap="butt" stroke-linejoin="miter" stroke-miterlimit="10" stroke-dasharray="" stroke-dashoffset="0" font-family="none" font-weight="none" font-size="none" text-anchor="none" style="mix-blend-mode: normal" data-fill-palette-color="secondary" opacity="1"></path><path transform="translate(0,72.3)" d="M12.68 0.58v0c-1.533 0-2.94-0.127-4.22-0.38-1.273-0.253-2.41-0.563-3.41-0.93-1-0.367-1.833-0.733-2.5-1.1v0l-0.42-4.12c1.28 0.767 2.79 1.437 4.53 2.01 1.747 0.573 3.643 0.86 5.69 0.86v0c2.467 0 4.29-0.437 5.47-1.31 1.187-0.873 1.78-2.187 1.78-3.94v0-0.39c0-1.153-0.233-2.097-0.7-2.83-0.467-0.733-1.253-1.35-2.36-1.85-1.107-0.5-2.61-0.967-4.51-1.4v0c-2.4-0.567-4.323-1.237-5.77-2.01-1.44-0.78-2.48-1.753-3.12-2.92-0.64-1.167-0.96-2.617-0.96-4.35v0-0.22c0-2.62 0.857-4.64 2.57-6.06 1.72-1.427 4.32-2.14 7.8-2.14v0c2.287 0 4.233 0.233 5.84 0.7 1.607 0.467 2.92 0.983 3.94 1.55v0l0.37 3.8c-1.18-0.7-2.56-1.297-4.14-1.79-1.573-0.493-3.377-0.74-5.41-0.74v0c-1.613 0-2.923 0.193-3.93 0.58-0.993 0.38-1.717 0.93-2.17 1.65-0.447 0.713-0.67 1.58-0.67 2.6v0 0.1c0 1.033 0.22 1.917 0.66 2.65 0.44 0.733 1.213 1.367 2.32 1.9 1.113 0.533 2.693 1.05 4.74 1.55v0c2.353 0.547 4.237 1.18 5.65 1.9 1.42 0.713 2.45 1.647 3.09 2.8 0.64 1.147 0.96 2.647 0.96 4.5v0 0.53c0 2.88-0.93 5.067-2.79 6.56-1.853 1.493-4.63 2.24-8.33 2.24zM41.7-10.63h-9.18v-3.45h9.08c2.187 0 3.77-0.543 4.75-1.63 0.987-1.093 1.48-2.6 1.48-4.52v0-2.17c0-1.953-0.49-3.463-1.47-4.53-0.973-1.067-2.543-1.6-4.71-1.6v0h-9.15v-3.42h9.23c3.567 0 6.16 0.837 7.78 2.51 1.627 1.673 2.44 3.977 2.44 6.91v0 2.4c0 2.967-0.82 5.293-2.46 6.98-1.64 1.68-4.237 2.52-7.79 2.52zM33.92 0h-4.09v-31.95h4.07v18.9l0.02 1.85zM59.5 0h-4.2l10-31.95h6.55l10.03 31.95h-4.2l-8.78-29.15h-0.62zM75.85-9.43h-14.55v-3.45h14.55zM109.78 0h-4.28l-0.9-6.55c-0.167-1.233-0.45-2.303-0.85-3.21-0.4-0.913-1.013-1.627-1.84-2.14-0.82-0.52-1.99-0.78-3.51-0.78v0l-8.67-0.02v-3.28l9.27-0.02c2.187 0 3.747-0.537 4.68-1.61 0.933-1.08 1.4-2.543 1.4-4.39v0-0.75c0-1.833-0.477-3.253-1.43-4.26-0.947-1.013-2.53-1.52-4.75-1.52v0h-9.3v-3.42h9.85c3.433 0 5.93 0.753 7.49 2.26 1.56 1.507 2.34 3.587 2.34 6.24v0 0.85c0 2.08-0.493 3.783-1.48 5.11-0.98 1.327-2.613 2.13-4.9 2.41v0 0.5l-1.77-0.62c1.847 0.133 3.273 0.537 4.28 1.21 1.013 0.673 1.753 1.593 2.22 2.76 0.467 1.173 0.823 2.573 1.07 4.2v0zM90.98 0h-4.1v-31.95h4.07v17.07l0.03 1.58zM119.75 0h-4.1v-31.95h4.1zM135.58 0h-18.7v-3.48h18.7zM135.05-14.58h-17.05v-3.45h17.05zM135.43-28.48h-18.58v-3.47h18.58z" fill="#000000" fill-rule="nonzero" stroke="none" stroke-width="1" stroke-linecap="butt" stroke-linejoin="miter" stroke-miterlimit="10" stroke-dasharray="" stroke-dashoffset="0" font-family="none" font-weight="none" font-size="none" text-anchor="none" style="mix-blend-mode: normal" data-fill-palette-color="primary" opacity="1"></path><path transform="translate(0,108.45)" d="M14.83 0h-6.61l-6.59-31.95h4.25l4.65 23.87 0.87 4.6h0.45l0.85-4.6 4.68-23.05h6.12l4.68 23.05 0.85 4.6h0.45l0.9-4.6 4.64-23.87h4.21l-6.58 31.95h-6.55l-3.7-18.38-1.75-9.32h-0.4l-1.77 9.32zM55.83 0.6v0c-4.04 0-7.107-1.113-9.2-3.34-2.1-2.227-3.15-5.413-3.15-9.56v0-7.38c0-4.133 1.05-7.31 3.15-9.53 2.093-2.227 5.16-3.34 9.2-3.34v0c4.033 0 7.1 1.113 9.2 3.34 2.093 2.22 3.14 5.397 3.14 9.53v0 7.38c0 4.147-1.047 7.333-3.14 9.56-2.1 2.227-5.167 3.34-9.2 3.34zM55.83-2.88v0c2.7 0 4.73-0.803 6.09-2.41 1.373-1.607 2.06-3.887 2.06-6.84v0-7.72c0-2.953-0.687-5.23-2.06-6.83-1.36-1.6-3.39-2.4-6.09-2.4v0c-2.687 0-4.713 0.8-6.08 2.4-1.367 1.6-2.05 3.877-2.05 6.83v0 7.72c0 2.953 0.683 5.233 2.05 6.84 1.367 1.607 3.393 2.41 6.08 2.41zM97.47 0h-4.27l-0.9-6.55c-0.167-1.233-0.45-2.303-0.85-3.21-0.4-0.913-1.013-1.627-1.84-2.14-0.82-0.52-1.99-0.78-3.51-0.78v0l-8.68-0.02v-3.28l9.28-0.02c2.18 0 3.74-0.537 4.68-1.61 0.933-1.08 1.4-2.543 1.4-4.39v0-0.75c0-1.833-0.477-3.253-1.43-4.26-0.953-1.013-2.537-1.52-4.75-1.52v0h-9.3v-3.42h9.85c3.433 0 5.93 0.753 7.49 2.26 1.553 1.507 2.33 3.587 2.33 6.24v0 0.85c0 2.08-0.49 3.783-1.47 5.11-0.98 1.327-2.613 2.13-4.9 2.41v0 0.5l-1.77-0.62c1.847 0.133 3.273 0.537 4.28 1.21 1.013 0.673 1.753 1.593 2.22 2.76 0.467 1.173 0.823 2.573 1.07 4.2v0zM78.67 0h-4.09v-31.95h4.07v17.07l0.02 1.58zM107.5-31.95v31.95h-4.15v-31.95zM105.58 0v-3.53h16.85v3.53zM138.4 0h-7.9v-3.5h7.75c2.833 0 4.963-0.77 6.39-2.31 1.427-1.547 2.14-3.753 2.14-6.62v0-7.12c0-2.887-0.713-5.097-2.14-6.63-1.427-1.533-3.557-2.3-6.39-2.3v0h-7.77v-3.47h7.92c4.133 0 7.26 1.063 9.38 3.19 2.113 2.12 3.17 5.18 3.17 9.18v0 7.18c0 3.98-1.057 7.043-3.17 9.19-2.12 2.14-5.247 3.21-9.38 3.21zM131.8 0h-4.1v-31.95h4.1z" fill="#000000" fill-rule="nonzero" stroke="none" stroke-width="1" stroke-linecap="butt" stroke-linejoin="miter" stroke-miterlimit="10" stroke-dasharray="" stroke-dashoffset="0" font-family="none" font-weight="none" font-size="none" text-anchor="none" style="mix-blend-mode: normal" data-fill-palette-color="secondary" opacity="1"></path></g></svg></g></svg></g><g transform="matrix(1,0,0,1,0,191.29941633561967)"><svg viewBox="0 0 108.45674052404564 10.342276761746605" height="10.342276761746605" width="108.45674052404564"><g transform="matrix(1,0,0,1,0,0)"><svg width="108.45674052404564" viewBox="2 -37.5 395.31 37.7" height="10.342276761746605" data-palette-color="#ff9966"><path d="M13.4-2.45L13.4-2.45 15.35-2.55 15.5-0.55Q15.45-0.55 14.8-0.4L14.8-0.4Q13.3-0.05 11.45-0.05L11.45-0.05Q9.75-0.15 8.35-0.63 6.95-1.1 5.75-2.63 4.55-4.15 4.55-6.55L4.55-6.55 4.55-22.1 2-22.1 2.4-24.5 4.6-24.95 5-29.75 7.8-30 7.8-25 13.85-25 13.85-22.1 7.8-22.1 7.8-7.4Q7.8-2.45 13.4-2.45ZM20.7-11.2L20.7-11.2Q20.7-6.75 23.25-4.73 25.8-2.7 29.2-2.7L29.2-2.7Q31.4-2.7 33.72-3.13 36.05-3.55 36.8-3.9L36.8-3.9 37.45-1.55Q36.3-0.8 33.67-0.3 31.05 0.2 28.87 0.2 26.7 0.2 24.97-0.25 23.25-0.7 21.45-1.85 19.65-3 18.6-5.45 17.55-7.9 17.55-11.45L17.55-11.45Q17.55-18.05 20.95-21.55L20.95-21.55Q24.5-25.2 29.2-25.2 33.9-25.2 36.37-22.6 38.85-20 38.85-15.3L38.85-15.3Q38.85-14.3 38.7-13.15L38.7-13.15 20.85-13.15Q20.7-12.1 20.7-11.2ZM35.85-15.65L35.85-15.65Q35.85-18.75 34-20.43 32.15-22.1 29.7-22.1L29.7-22.1Q26.35-22.1 24.15-20.08 21.95-18.05 21.2-15.1L21.2-15.1 35.85-15.1Q35.85-15.4 35.85-15.65ZM45-8.05L45.25-3.25Q47.35-2.6 48.62-2.6 49.9-2.6 50.3-2.65L50.3-2.65Q52.9-2.7 54.65-3.75 56.4-4.8 56.4-6.7 56.4-8.6 55.02-9.65 53.65-10.7 51.7-11.25 49.75-11.8 47.8-12.45 45.85-13.1 44.47-14.5 43.1-15.9 43.1-18.15L43.1-18.15Q43.1-21.35 45.55-23.28 48-25.2 51.75-25.2L51.75-25.2Q54.55-25.2 57.4-24.2L57.4-24.2 58.3-23.85 58.3-18.1 55.85-17.75 55.65-22Q53.65-22.3 52.3-22.3L52.3-22.3Q49.55-22.3 47.95-21.23 46.35-20.15 46.35-18.48 46.35-16.8 47.72-15.85 49.1-14.9 51.05-14.35 53-13.8 54.95-13.13 56.9-12.45 58.27-10.93 59.65-9.4 59.65-6.95L59.65-6.95Q59.65-3.65 57.17-1.73 54.7 0.2 50.15 0.2 45.6 0.2 42.6-1.95L42.6-1.95 42.6-7.7 45-8.05ZM73.94-2.45L73.94-2.45 75.89-2.55 76.04-0.55Q75.99-0.55 75.34-0.4L75.34-0.4Q73.84-0.05 71.99-0.05L71.99-0.05Q70.29-0.15 68.89-0.63 67.49-1.1 66.29-2.63 65.09-4.15 65.09-6.55L65.09-6.55 65.09-22.1 62.54-22.1 62.94-24.5 65.14-24.95 65.54-29.75 68.34-30 68.34-25 74.39-25 74.39-22.1 68.34-22.1 68.34-7.4Q68.34-2.45 73.94-2.45ZM81.24-11.2L81.24-11.2Q81.24-6.75 83.79-4.73 86.34-2.7 89.74-2.7L89.74-2.7Q91.94-2.7 94.27-3.13 96.59-3.55 97.34-3.9L97.34-3.9 97.99-1.55Q96.84-0.8 94.22-0.3 91.59 0.2 89.42 0.2 87.24 0.2 85.52-0.25 83.79-0.7 81.99-1.85 80.19-3 79.14-5.45 78.09-7.9 78.09-11.45L78.09-11.45Q78.09-18.05 81.49-21.55L81.49-21.55Q85.04-25.2 89.74-25.2 94.44-25.2 96.92-22.6 99.39-20 99.39-15.3L99.39-15.3Q99.39-14.3 99.24-13.15L99.24-13.15 81.39-13.15Q81.24-12.1 81.24-11.2ZM96.39-15.65L96.39-15.65Q96.39-18.75 94.54-20.43 92.69-22.1 90.24-22.1L90.24-22.1Q86.89-22.1 84.69-20.08 82.49-18.05 81.74-15.1L81.74-15.1 96.39-15.1Q96.39-15.4 96.39-15.65ZM107.29-1.85L107.29-1.85Q105.54-3 104.46-5.48 103.39-7.95 103.39-11.5L103.39-11.5Q103.39-18.05 106.74-21.5L106.74-21.5Q110.29-25.2 114.84-25.2L114.84-25.2Q117.64-25.2 120.54-23.75L120.54-23.75 120.54-35 117.19-35 117.19-37.5 123.79-37.5 123.79-2.5 127.64-2.5 127.64 0 121.04 0 120.64-1.6Q117.79 0.2 114.09 0.2 110.39 0.2 107.29-1.85ZM120.54-4.05L120.54-4.05 120.54-21.6Q118.24-22.3 116.19-22.3L116.19-22.3Q111.89-22.3 109.26-19.48 106.64-16.65 106.64-11.55L106.64-11.55Q106.64-8.85 107.41-6.98 108.19-5.1 109.49-4.2L109.49-4.2Q111.74-2.7 114.74-2.7 117.74-2.7 120.54-4.05ZM154.13 0.2L154.13 0.2Q147.48 0.2 147.08-5.05L147.08-5.05Q147.03-5.4 147.03-5.75L147.03-5.75Q147.03-9.95 152.08-11.35L152.08-11.35Q154.88-12.05 162.88-12.95L162.88-12.95 162.88-16.8Q162.88-22.25 157.18-22.25L157.18-22.25Q153.08-22.2 148.48-20.35L148.48-20.35 147.63-22.5 148.13-22.7Q152.03-24.4 154.08-24.75 156.13-25.1 157.08-25.13 158.03-25.15 158.91-25.1 159.78-25.05 161.18-24.65 162.58-24.25 163.61-23.53 164.63-22.8 165.38-21.35 166.13-19.9 166.13-17.9L166.13-17.9 166.13-2.5 169.98-2.5 169.98 0 163.38 0 162.88-1.9Q158.38 0.2 154.13 0.2ZM155.03-2.1L155.03-2.1Q158.83-2.1 162.88-3.8L162.88-3.8 162.88-10.95Q155.38-10.7 153.18-9.95L153.18-9.95Q151.48-9.5 150.78-8.33 150.08-7.15 150.08-6.45 150.08-5.75 150.08-5.5L150.08-5.5Q150.23-3.7 151.63-2.9 153.03-2.1 155.03-2.1ZM175.33-22.5L171.98-22.5 171.98-25 178.58-25 178.58-22.2Q182.68-25 186.43-25.15L186.43-25.15Q190.08-25.15 191.98-23.7L191.98-23.7Q192.83-23.05 193.51-21.68 194.18-20.3 194.18-18.4L194.18-18.4 194.18-2.5 198.03-2.5 198.03 0 187.93 0 187.93-2.5 190.93-2.5 190.93-17.15Q190.93-22 185.23-22L185.23-22Q182.13-21.9 178.58-19.95L178.58-19.95 178.58-2.5 182.33-2.5 182.33 0 172.23 0 172.23-2.5 175.33-2.5 175.33-22.5ZM205.63-1.85L205.63-1.85Q203.88-3 202.8-5.48 201.73-7.95 201.73-11.5L201.73-11.5Q201.73-18.05 205.08-21.5L205.08-21.5Q208.63-25.2 213.18-25.2L213.18-25.2Q215.98-25.2 218.88-23.75L218.88-23.75 218.88-35 215.53-35 215.53-37.5 222.13-37.5 222.13-2.5 225.98-2.5 225.98 0 219.38 0 218.98-1.6Q216.13 0.2 212.43 0.2 208.73 0.2 205.63-1.85ZM218.88-4.05L218.88-4.05 218.88-21.6Q216.58-22.3 214.53-22.3L214.53-22.3Q210.23-22.3 207.6-19.48 204.98-16.65 204.98-11.55L204.98-11.55Q204.98-8.85 205.75-6.98 206.53-5.1 207.83-4.2L207.83-4.2Q210.08-2.7 213.08-2.7 216.08-2.7 218.88-4.05ZM256.77-2.45L256.77-2.45 258.72-2.55 258.87-0.55Q258.82-0.55 258.17-0.4L258.17-0.4Q256.67-0.05 254.82-0.05L254.82-0.05Q253.12-0.15 251.72-0.63 250.32-1.1 249.12-2.63 247.92-4.15 247.92-6.55L247.92-6.55 247.92-22.1 245.37-22.1 245.77-24.5 247.97-24.95 248.37-29.75 251.17-30 251.17-25 257.22-25 257.22-22.1 251.17-22.1 251.17-7.4Q251.17-2.45 256.77-2.45ZM267.42-16.75L267.42-2.5 271.57-2.5 271.57 0 261.07 0 261.07-2.5 264.17-2.5 264.17-22.5 260.82-22.5 260.82-25 267.42-25 267.42-18.95Q271.37-24.75 275.17-24.85L275.17-24.85Q275.47-24.85 275.77-24.85L275.77-24.85 278.57-24.5 277.27-21.5Q276.32-21.95 274.82-21.95L274.82-21.95Q271.22-21.9 267.42-16.75L267.42-16.75ZM301.97 0L301.47-2.9Q296.92 0.15 292.87 0.15L292.87 0.15Q291.17 0.15 288.87-0.7L288.87-0.7Q287.37-1.25 286.47-2.78 285.57-4.3 285.57-6.6L285.57-6.6 285.57-22.5 282.07-22.5 282.07-25 288.82-25 288.82-7.6Q288.82-5.85 289.57-4.73 290.32-3.6 291.47-3.25L291.47-3.25Q293.37-2.65 294.52-2.75L294.52-2.75Q297.52-2.8 301.47-4.9L301.47-4.9 301.47-22.5 297.97-22.5 297.97-25 304.72-25 304.72-2.5 308.57-2.5 308.57 0 301.97 0ZM314.66-8.05L314.91-3.25Q317.01-2.6 318.29-2.6 319.56-2.6 319.96-2.65L319.96-2.65Q322.56-2.7 324.31-3.75 326.06-4.8 326.06-6.7 326.06-8.6 324.69-9.65 323.31-10.7 321.37-11.25 319.41-11.8 317.46-12.45 315.51-13.1 314.14-14.5 312.76-15.9 312.76-18.15L312.76-18.15Q312.76-21.35 315.21-23.28 317.66-25.2 321.41-25.2L321.41-25.2Q324.21-25.2 327.06-24.2L327.06-24.2 327.96-23.85 327.96-18.1 325.51-17.75 325.31-22Q323.31-22.3 321.96-22.3L321.96-22.3Q319.21-22.3 317.62-21.23 316.01-20.15 316.01-18.48 316.01-16.8 317.39-15.85 318.76-14.9 320.71-14.35 322.66-13.8 324.62-13.13 326.56-12.45 327.94-10.93 329.31-9.4 329.31-6.95L329.31-6.95Q329.31-3.65 326.84-1.73 324.37 0.2 319.81 0.2 315.26 0.2 312.26-1.95L312.26-1.95 312.26-7.7 314.66-8.05ZM343.61-2.45L343.61-2.45 345.56-2.55 345.71-0.55Q345.66-0.55 345.01-0.4L345.01-0.4Q343.51-0.05 341.66-0.05L341.66-0.05Q339.96-0.15 338.56-0.63 337.16-1.1 335.96-2.63 334.76-4.15 334.76-6.55L334.76-6.55 334.76-22.1 332.21-22.1 332.61-24.5 334.81-24.95 335.21-29.75 338.01-30 338.01-25 344.06-25 344.06-22.1 338.01-22.1 338.01-7.4Q338.01-2.45 343.61-2.45ZM350.91-11.2L350.91-11.2Q350.91-6.75 353.46-4.73 356.01-2.7 359.41-2.7L359.41-2.7Q361.61-2.7 363.94-3.13 366.26-3.55 367.01-3.9L367.01-3.9 367.66-1.55Q366.51-0.8 363.88-0.3 361.26 0.2 359.08 0.2 356.91 0.2 355.19-0.25 353.46-0.7 351.66-1.85 349.86-3 348.81-5.45 347.76-7.9 347.76-11.45L347.76-11.45Q347.76-18.05 351.16-21.55L351.16-21.55Q354.71-25.2 359.41-25.2 364.11-25.2 366.58-22.6 369.06-20 369.06-15.3L369.06-15.3Q369.06-14.3 368.91-13.15L368.91-13.15 351.06-13.15Q350.91-12.1 350.91-11.2ZM366.06-15.65L366.06-15.65Q366.06-18.75 364.21-20.43 362.36-22.1 359.91-22.1L359.91-22.1Q356.56-22.1 354.36-20.08 352.16-18.05 351.41-15.1L351.41-15.1 366.06-15.1Q366.06-15.4 366.06-15.65ZM376.96-1.85L376.96-1.85Q375.21-3 374.13-5.48 373.06-7.95 373.06-11.5L373.06-11.5Q373.06-18.05 376.41-21.5L376.41-21.5Q379.96-25.2 384.51-25.2L384.51-25.2Q387.31-25.2 390.21-23.75L390.21-23.75 390.21-35 386.86-35 386.86-37.5 393.46-37.5 393.46-2.5 397.31-2.5 397.31 0 390.71 0 390.31-1.6Q387.46 0.2 383.76 0.2 380.06 0.2 376.96-1.85ZM390.21-4.05L390.21-4.05 390.21-21.6Q387.91-22.3 385.86-22.3L385.86-22.3Q381.56-22.3 378.93-19.48 376.31-16.65 376.31-11.55L376.31-11.55Q376.31-8.85 377.08-6.98 377.86-5.1 379.16-4.2L379.16-4.2Q381.41-2.7 384.41-2.7 387.41-2.7 390.21-4.05Z" opacity="1" transform="matrix(1,0,0,1,0,0)" fill="#000000" class="slogan-text-1" data-fill-palette-color="secondary" id="text-1"></path></svg></g></svg></g></svg></g></svg></g><g transform="matrix(1,0,0,1,0,43.45293906096428)"><svg viewBox="0 0 114.73581497543775 114.7358149754377" height="114.7358149754377" width="114.73581497543775"><g><svg xmlns="http://www.w3.org/2000/svg" xmlns:xlink="http://www.w3.org/1999/xlink" version="1.1" x="0" y="0" viewBox="3.1949546421992636 3.194954642199267 93.61009071560149 93.61009071560144" enable-background="new 0 0 100 100" xml:space="preserve" height="114.7358149754377" width="114.73581497543775" class="icon-icon-0" data-fill-palette-color="accent" id="icon-0"><g fill="#ff9966" data-fill-palette-color="accent"><path d="M24.8 13.6l4.9 5c4.1-2.6 8.7-4.5 13.6-5.4l0.1-7c0-1.7 1.4-3.1 3.1-3l8.4 0.1c1.7 0 3.1 1.4 3 3.1l-0.1 7c4.9 1 9.4 3 13.4 5.8l5-4.9c1.2-1.2 3.2-1.2 4.4 0.1l5.9 6c1.2 1.2 1.2 3.2-0.1 4.4l-5 4.9c2.6 4.1 4.5 8.7 5.4 13.6l7 0.1c1.7 0 3.1 1.4 3 3.1l-0.1 8.4c0 1.7-1.4 3.1-3.1 3l-7-0.1c-0.6 2.9-1.6 5.7-2.8 8.3l-8-8c0.8-2.4 1.2-5 1.2-7.7C77.3 35.5 65.3 23.2 50.4 23 35.5 22.7 23.2 34.7 23 49.6 22.7 64.5 34.7 76.8 49.6 77c2.6 0 5.1-0.3 7.4-0.9l8.1 8.1c-2.7 1.2-5.5 2.1-8.4 2.6l-0.1 7c0 1.7-1.4 3.1-3.1 3l-8.4-0.1c-1.7 0-3.1-1.4-3-3.1l0.1-7c-4.9-1-9.4-3-13.4-5.8l-5 4.9c-1.2 1.2-3.2 1.2-4.4-0.1l-5.9-6c-1.2-1.2-1.2-3.2 0.1-4.4l5-4.9c-2.6-4.1-4.5-8.7-5.4-13.6l-7-0.1c-1.7 0-3.1-1.4-3-3.1l0.1-8.4c0-1.7 1.4-3.1 3.1-3l7 0.1c1-4.9 3-9.4 5.8-13.4l-4.9-5c-1.2-1.2-1.2-3.2 0.1-4.4l6-5.9C21.6 12.3 23.6 12.3 24.8 13.6zM32.3 45.7c-1.5 6.1 0.1 12.7 4.8 17.5 3.9 3.9 9.1 5.7 14.2 5.3 3-0.2 5.9 0.8 8 2.9l15.9 15.9c1.1 1.1 2.8 1.1 3.9 0l2.1-2.1L62.3 66.3c-0.9-0.9-1-2.3-0.3-3.2 0.9-1.1 2.5-1.1 3.5-0.2l19 19 2.1-2.1c1.1-1.1 1.1-2.8 0-3.9L71.4 60.7c-2.2-2.2-3.3-5.4-3-8.5 0.6-5.4-1.1-11-5.2-15.1-5-5-12.2-6.5-18.6-4.5-0.4 0.1-0.5 0.7-0.2 1l7.8 7.8c2.2 2.2 2.2 5.9 0 8.1l-3.4 3.4c-2.2 2.2-5.9 2.2-8.1 0l-7.4-7.4C33 45.1 32.4 45.3 32.3 45.7z" fill="#000000" data-fill-palette-color="accent"></path></g></svg></g></svg></g></svg></g></svg></g></svg></g><defs></defs></svg><rect width="448" height="360" fill="none" stroke="none" visibility="hidden"></rect></g></svg></g></svg>